<svg width="55" height="43" viewBox="0 0 55 43" fill="none" xmlns="http://www.w3.org/2000/svg">
<path d="M45.5314 41.9884H0.623047C17.5253 19.8626 9.3146 1 9.3146 1H36.8398C36.8398 1 35.3104 4.51116 34.9163 10.2896C34.4314 17.8906 35.9253 29.412 45.5314 41.9884Z" stroke="white" stroke-linecap="round" stroke-linejoin="round"/>
<path d="M54.231 42.0518H19.8196L19.8669 41.9889H45.5316C35.9256 29.4125 34.4316 17.891 34.9165 10.29H47.5616C47.5616 10.29 41.2785 24.9054 54.231 42.0518Z" stroke="white" stroke-linecap="round" stroke-linejoin="round"/>
<path d="M24.8609 27.5384C24.8941 27.9193 24.8031 28.3007 24.6013 28.6257C24.3995 28.9506 24.0979 29.2016 23.7414 29.3412C23.5846 29.4018 23.4201 29.4403 23.2527 29.4554C22.9047 29.4856 22.5556 29.4123 22.2493 29.2448C21.943 29.0773 21.6932 28.823 21.5313 28.514C21.3694 28.205 21.3026 27.8551 21.3395 27.5083C21.3763 27.1615 21.515 26.8333 21.7382 26.5651C21.9614 26.2969 22.2591 26.1006 22.5938 26.0009C22.9284 25.9013 23.2851 25.9027 23.619 26.0051C23.9528 26.1075 24.2489 26.3062 24.4699 26.5762C24.6909 26.8463 24.8269 27.1756 24.8609 27.5227V27.5384Z" stroke="white" stroke-linecap="round" stroke-linejoin="round"/>
<path d="M33.4193 26.6958C33.6439 28.9122 33.1313 31.1407 31.9608 33.0371C30.781 34.9446 29.0133 36.4183 26.9233 37.2371L24.6252 31.5453C25.4642 31.2199 26.1735 30.6295 26.6453 29.8642C27.1171 29.0988 27.3255 28.2005 27.2386 27.3059L33.4193 26.6958Z" stroke="white" stroke-linecap="round" stroke-linejoin="round"/>
<path d="M17.0129 19.3863C18.8509 18.0861 21.059 17.4113 23.3108 17.4616C25.5626 17.5119 27.7383 18.2848 29.5162 19.6657L25.6651 24.4759C24.9501 23.9198 24.0746 23.6088 23.1685 23.5889C22.2625 23.5691 21.3742 23.8415 20.6354 24.3657L17.0129 19.3863Z" stroke="white" stroke-linecap="round" stroke-linejoin="round"/>
<path d="M18.799 37.0566C16.7497 36.1474 15.0522 34.5973 13.9625 32.6401C12.8758 30.694 12.4603 28.445 12.7799 26.2397L18.9291 27.1215C18.8043 28.0075 18.9728 28.9101 19.409 29.6917C19.8452 30.4733 20.5251 31.0912 21.3454 31.4514L18.799 37.0566Z" stroke="white" stroke-linecap="round" stroke-linejoin="round"/>
</svg>
