<svg width="62" height="44" viewBox="0 0 62 44" fill="none" xmlns="http://www.w3.org/2000/svg">
<path d="M16.8555 42.5069C16.777 42.2763 18.4165 37.7521 20.4901 32.204C21.5985 29.2478 22.8223 26.001 23.9815 22.9802C25.1407 19.9595 26.2075 17.1416 27.025 14.9971" stroke="white" stroke-linecap="round" stroke-linejoin="round"/>
<path d="M29.6499 14.8491L32.1253 22.966L34.9425 32.2082L38.0875 42.5112" stroke="white" stroke-linecap="round" stroke-linejoin="round"/>
<path d="M24.5786 13.1938L8.91797 19.5675" stroke="white" stroke-linecap="round" stroke-linejoin="round"/>
<path d="M32.1006 10.1315L54.5409 1V34.307" stroke="white" stroke-linecap="round" stroke-linejoin="round"/>
<path d="M3.55564 11.5795L0.840088 17.6533C0.840088 17.6533 3.38477 25.7749 4.82106 29.409L9.41164 29.6949L7.95226 11.4826L3.55564 11.5795Z" stroke="white" stroke-linecap="round" stroke-linejoin="round"/>
<path d="M60.9973 35.1187H49.5486V42.5115H60.9973V35.1187Z" stroke="white" stroke-linecap="round" stroke-linejoin="round"/>
<path d="M32.2446 11.1458C32.2313 11.9495 31.9768 12.7308 31.5141 13.3885C31.0514 14.0462 30.4017 14.5502 29.6491 14.8353C29.1587 15.0251 28.6372 15.1221 28.1112 15.1212C27.7449 15.1227 27.3801 15.0762 27.0259 14.9829C26.0112 14.7122 25.1367 14.068 24.5782 13.1796C24.1992 12.5684 23.9963 11.8647 23.9917 11.1458C24.0174 10.1588 24.3966 9.21362 25.0604 8.48187C25.7243 7.75013 26.6288 7.28026 27.6098 7.15752C28.5909 7.03477 29.5836 7.26729 30.4076 7.81288C31.2317 8.35847 31.8327 9.18098 32.1014 10.1312C32.1956 10.4612 32.2438 10.8026 32.2446 11.1458Z" stroke="white" stroke-linecap="round" stroke-linejoin="round"/>
<path d="M23.9819 22.9663H32.124" stroke="white" stroke-linecap="round" stroke-linejoin="round"/>
<path d="M20.4907 32.2134H34.946" stroke="white" stroke-linecap="round" stroke-linejoin="round"/>
<path d="M9.41284 42.5114V30.0547" stroke="white" stroke-linecap="round" stroke-linejoin="round"/>
</svg>
