<svg width="45" height="43" viewBox="0 0 45 43" fill="none" xmlns="http://www.w3.org/2000/svg">
<path d="M6.06201 42.1796C9.6474 42.1796 9.6474 36.5356 13.2328 36.5356C16.8182 36.5356 16.8213 42.1796 20.4067 42.1796C23.9921 42.1796 23.9921 36.5356 27.5807 36.5356C31.1692 36.5356 31.1661 42.1796 34.7514 42.1796C38.3368 42.1796 38.34 36.5356 41.9254 36.5356" stroke="white" stroke-linecap="round" stroke-linejoin="round"/>
<path d="M37.2656 19.8913L44.1959 11.3179" stroke="white" stroke-linecap="round" stroke-linejoin="round"/>
<path d="M18.959 14.3042H23.2501V21.6388" stroke="white" stroke-linecap="round" stroke-linejoin="round"/>
<path d="M25.061 21.6387L29.8205 1H33.9565L37.2665 20.9877" stroke="white" stroke-linecap="round" stroke-linejoin="round"/>
<path d="M1.15845 6.96954V21.6388" stroke="white" stroke-linecap="round" stroke-linejoin="round"/>
<path d="M1.15845 6.96954L18.5443 20.9878V14.4148L2.6869 4.69742L1.15845 6.96954Z" stroke="white" stroke-linecap="round" stroke-linejoin="round"/>
<path d="M32.7651 41.5033V31.8018H38.4549V39.1775" stroke="white" stroke-linecap="round" stroke-linejoin="round"/>
<path d="M17.5625 40.4699V31.8018H23.2491V40.4668" stroke="white" stroke-linecap="round" stroke-linejoin="round"/>
<path d="M40.3668 21.6387H14.304V31.4951H40.3668V21.6387Z" stroke="white" stroke-linecap="round" stroke-linejoin="round"/>
</svg>
