<svg width="464" height="393" viewBox="0 0 464 393" fill="none" xmlns="http://www.w3.org/2000/svg">
<path fill-rule="evenodd" clip-rule="evenodd" d="M33.8636 392.999H113.564L117.368 364.481L0 348.951L33.8636 392.999ZM179.116 392.999H267.95L269.085 384.537L181.785 372.996L179.116 392.999V392.999ZM324.426 392.999H400.533L408.623 332.409L333.818 322.509L324.426 392.999ZM464 344.924V340.613L463.431 344.849L464 344.924ZM464 249.338V195.028L422.467 189.535L410.864 276.466L425.819 278.447L464 249.338ZM464 129.763V31.1667L446.596 8.53036L431.009 125.402L464.001 129.763H464ZM277.658 320.278L279.643 305.387L203.927 206.918L190.35 308.724L277.658 320.278ZM8.56761 284.699L125.941 300.219L141.524 183.346L8.56761 284.699ZM249.109 101.346L366.471 116.867L382.068 0.00012207L249.109 101.346ZM255.678 167.478L331.388 265.947L346.329 267.935L357.92 181.009L255.679 167.478H255.678Z" fill="#193967"/>
</svg>
